<svg width="776" height="186" viewBox="0 0 776 186" fill="none" xmlns="http://www.w3.org/2000/svg">
<path d="M182.333 95.928L181.949 99.512L154.557 99.384L154.301 95.544L165.309 92.728L166.589 21.176L165.309 20.92L137.917 96.696L130.621 96.824L105.149 22.712L101.949 23.096L105.789 92.344L113.853 94.776L114.749 99.64L88.253 99.128L87.869 95.8L95.421 92.728L94.525 14.264L85.821 11.192L85.565 8.24799L106.813 9.39999L110.269 15.032L133.565 84.92L134.973 84.792L158.269 13.112L161.597 8.632L181.949 8.88799V13.112L175.933 14.264L173.373 92.984L182.333 95.928ZM269.745 99H244.913L241.969 95.928L251.953 93.112L247.985 75.064L244.913 69.176L213.169 73.144L211.121 80.056L209.201 93.112L217.137 95.928V100.024L191.409 98.104V94.008L199.217 92.088L223.025 8.632L236.977 10.68L261.937 92.088L268.849 94.008L269.745 99ZM241.969 60.344L231.089 20.536L229.169 21.56L216.113 63.16V65.336L241.969 60.344ZM355.34 92.088L347.66 102.328L331.02 92.344L321.932 63.672L310.924 55.224L299.916 58.68L299.66 92.088L308.492 93.88L309.132 98.872L280.972 98.36L280.46 94.904L289.036 92.344V16.184L278.54 12.344L278.668 8.632H307.468L308.236 13.368L300.428 15.544L300.684 15.672L300.044 50.104L312.844 46.52L321.42 39.992L329.228 11.704L344.46 8.632L346.636 16.312L337.292 18.104L325.9 46.904L321.036 50.488L328.972 54.584L338.828 84.536L355.34 92.088ZM438.845 99H414.013L411.069 95.928L421.053 93.112L417.085 75.064L414.013 69.176L382.269 73.144L380.221 80.056L378.301 93.112L386.237 95.928V100.024L360.509 98.104V94.008L368.317 92.088L392.125 8.632L406.077 10.68L431.037 92.088L437.949 94.008L438.845 99ZM411.069 60.344L400.189 20.536L398.269 21.56L385.213 63.16V65.336L411.069 60.344ZM466.456 20.92L467.992 54.584L490.648 54.456L501.656 40.76L494.616 21.56L477.592 17.464L466.456 20.92ZM467.224 64.568V92.216L474.904 94.776L475.672 99.384L449.048 98.744L448.792 95.672L457.88 92.088L456.984 17.336L452.632 13.88L447.64 13.24L448.28 8.504L458.904 8.12L464.792 11.192L476.568 10.168L503.96 15.672L509.464 47.16L493.464 62.776L467.224 64.568ZM540.116 19.512L532.948 46.392L539.476 77.496L556.116 91.832L567.124 92.728L584.404 62.52L577.748 31.416L564.436 18.744L540.116 19.512ZM571.348 8.75999L588.884 27.832L593.62 65.08L573.908 100.664L550.612 101.432L529.492 80.312L524.5 47.416L531.412 16.184L545.364 6.45599L571.348 8.75999ZM681.319 91.448L689.511 94.264L688.999 97.976L660.199 97.72L659.943 94.008L669.671 91.32L669.927 57.656H629.095L627.175 91.32L637.159 94.648L637.927 99.384L609.895 99L609.639 95.8L619.367 91.96L617.063 17.08L608.615 14.136L608.999 10.552L637.159 10.296L637.927 15.032L629.479 17.592L629.095 46.392L670.823 51.256L672.103 18.104L663.783 15.544L662.503 11.96L689.255 10.552L690.407 13.24L681.447 18.36L681.319 91.448Z" fill="white"/>
<path d="M61.3959 154.24L55.1959 154.56L47.3959 152L47.0759 142.12L50.4759 135.28L56.1159 133.36L60.4359 135.84L58.2759 141.48L57.0359 140.84L58.2759 137.12L56.7159 135.84L52.0359 138.04L49.8759 143L50.4759 150.16L55.1959 152L60.4359 151.12L61.3959 154.24ZM88.3634 135.88L88.6434 152.32L90.2834 153.16L90.6834 154.04L83.5234 154.2L83.7234 152.92L85.3234 152.48V135.88H76.1234L76.1634 152.48L77.7634 152.92L77.9234 154.2L70.8434 154.04L70.7234 153.16L72.8834 152.32L73.0834 135.88L72.5234 135.76L70.2034 135.6L70.8834 133.4L72.0834 133.72H89.3634L90.5634 133.4L90.9634 135.64L89.0034 135.76L88.3634 135.88ZM116.708 144L114.508 137.56L110.028 136.96L105.868 138.44L106.108 148.8L110.268 150.4L115.588 148.04L116.708 144ZM120.348 144.72L116.188 151.96L109.748 153.2L105.708 151.36L105.908 160.36L108.588 161.28L108.428 162.84L100.348 162.8L100.188 161.6L102.668 160.6L102.428 135.6L101.068 135.12L102.428 132.48L105.908 134.28L105.628 135.88L109.828 134.32L116.668 134.4L120.348 144.72ZM135.866 135.64L132.346 140.2L133.106 148.08L137.546 152.28L140.546 152.24L144.306 144.88L142.626 137.96L139.946 135.96L135.866 135.64ZM141.306 132.96L145.546 136.88L147.146 146.04L141.506 154.88L135.906 155.12L130.026 148.04L129.586 138.92L134.586 132.96H141.306ZM160.287 140.88L160.647 151.24L166.527 152.36L170.847 146.12L168.207 139.04L164.567 138.44L160.287 140.88ZM173.407 126.12L170.527 128.36L162.927 131.24L160.327 134.4L160.087 138.12L164.967 135.8L170.687 137.4L174.407 146.36L169.327 154.4L159.567 154.2L157.327 152.28L157.167 135.04L160.327 130.28L168.287 126.96L171.047 123.88L173.407 126.12ZM199.975 135.4L193.095 160.28L189.055 163.44L184.615 162.4L183.455 162.12L183.655 157.4L184.975 153.96L187.375 154.96L185.415 157.8L185.815 159.88L188.695 160.84L190.695 159.68L191.495 156.04L192.095 152.48L189.255 153.12L183.135 136.24L181.335 136.08L180.815 134.32L186.135 133.88L187.935 142.28L192.335 151.52L196.695 135.32L194.815 134.72L194.935 133.64L201.935 133.56L202.055 134.56L199.975 135.4ZM219.125 128.44L220.045 128.92L224.485 125.24L227.125 127.64L220.525 130.44H219.125L213.045 126.92L215.045 125.6L219.125 128.44ZM212.805 152.04L212.605 135.24L210.245 134.48L210.405 133.44H218.205L218.245 134.52L215.805 135.16L215.325 149.24L225.045 135.6V135.16L222.645 134.6L222.805 133.64H230.445V134.68L228.165 135.28L227.925 152.24L230.845 153.36L230.725 154.24L223.405 154.36L223.565 153.12L225.365 152.56L225.165 138.48L215.525 151.84L215.645 152.48L217.365 153.12L217.285 154.08H210.085L210.245 152.84L212.805 152.04ZM274.901 154.24L268.701 154.56L260.901 152L260.581 142.12L263.981 135.28L269.621 133.36L273.941 135.84L271.781 141.48L270.541 140.84L271.781 137.12L270.221 135.84L265.541 138.04L263.381 143L263.981 150.16L268.701 152L273.941 151.12L274.901 154.24ZM301.869 135.88L302.149 152.32L303.789 153.16L304.189 154.04L297.029 154.2L297.229 152.92L298.829 152.48V135.88H289.629L289.669 152.48L291.269 152.92L291.429 154.2L284.349 154.04L284.229 153.16L286.389 152.32L286.589 135.88L286.029 135.76L283.709 135.6L284.389 133.4L285.589 133.72H302.869L304.069 133.4L304.469 135.64L302.509 135.76L301.869 135.88ZM330.213 144L328.013 137.56L323.533 136.96L319.373 138.44L319.613 148.8L323.773 150.4L329.093 148.04L330.213 144ZM333.853 144.72L329.693 151.96L323.253 153.2L319.213 151.36L319.413 160.36L322.093 161.28L321.933 162.84L313.853 162.8L313.693 161.6L316.173 160.6L315.933 135.6L314.573 135.12L315.933 132.48L319.413 134.28L319.133 135.88L323.333 134.32L330.173 134.4L333.853 144.72ZM349.371 135.64L345.851 140.2L346.611 148.08L351.051 152.28L354.051 152.24L357.811 144.88L356.131 137.96L353.451 135.96L349.371 135.64ZM354.811 132.96L359.051 136.88L360.651 146.04L355.011 154.88L349.411 155.12L343.531 148.04L343.091 138.92L348.091 132.96H354.811ZM373.792 140.88L374.152 151.24L380.032 152.36L384.352 146.12L381.712 139.04L378.072 138.44L373.792 140.88ZM386.912 126.12L384.032 128.36L376.432 131.24L373.832 134.4L373.592 138.12L378.472 135.8L384.192 137.4L387.912 146.36L382.832 154.4L373.072 154.2L370.832 152.28L370.672 135.04L373.832 130.28L381.792 126.96L384.552 123.88L386.912 126.12ZM413.48 135.4L406.6 160.28L402.56 163.44L398.12 162.4L396.96 162.12L397.16 157.4L398.48 153.96L400.88 154.96L398.92 157.8L399.32 159.88L402.2 160.84L404.2 159.68L405 156.04L405.6 152.48L402.76 153.12L396.64 136.24L394.84 136.08L394.32 134.32L399.64 133.88L401.44 142.28L405.84 151.52L410.2 135.32L408.32 134.72L408.44 133.64L415.44 133.56L415.56 134.56L413.48 135.4ZM441.95 151.2L435.51 154.4L426.79 154.12L424.27 152.16L424.55 137.64L425.19 135.12L431.99 133.52L437.11 135.12L438.75 139.24L436.43 142.48H438.75L441.95 151.2ZM431.99 135.76L427.15 137.64L427.43 142.84H429.75H433.91L436.15 139.64L435.19 137L431.99 135.76ZM438.47 150.88L436.15 144.44L427.43 145.72V150.88L432.59 152.16L438.47 150.88ZM459.012 143.64L454.532 146.64L454.412 151.12L456.012 151.96C456.545 151.933 457.039 151.907 457.492 151.88C457.865 151.853 458.199 151.827 458.492 151.8C458.812 151.747 458.972 151.693 458.972 151.64C458.972 151.64 459.025 151.56 459.132 151.4C459.239 151.24 459.372 151.04 459.532 150.8C459.719 150.533 459.919 150.253 460.132 149.96C460.345 149.64 460.572 149.32 460.812 149C461.345 148.253 461.972 147.4 462.692 146.44L462.412 143.52L459.012 143.64ZM456.452 132.84L465.492 134.96L465.652 151.4L469.052 151.64L469.092 153.48L464.132 153.96L462.452 150.44L460.372 153.72L453.612 155L451.132 152L451.292 145.92L458.132 141.48L462.372 140.92L462.692 136.56L456.012 135.68L454.052 139.08L451.852 136.76L452.252 135.76L456.452 132.84ZM492.963 133.36L492.363 137.08L490.803 136.8L490.643 135.64H486.283L486.163 152.68L487.723 153.2L487.883 154.4L481.043 154.24L480.963 153.44L483.003 152.64L483.363 135.6L481.803 135.52L478.643 135.88L478.523 137.2L476.723 137.4L476.283 133.36L480.883 133.52L492.963 133.36ZM504.544 152.16L504.344 135.2L501.944 134.44L502.104 133.4L509.984 133.48L510.024 134.48L507.584 135.12L507.024 149.36L516.904 135.56V135.12L514.464 134.6L514.664 133.64L522.304 133.72L522.344 134.72L520.024 135.32L519.744 152.4L522.664 153.52L522.584 154.48L515.224 154.6L515.384 153.28L517.184 152.72L516.984 138.48L507.264 151.96L507.344 152.6L509.144 153.36L509.064 154.2L501.784 154.28L502.024 152.96L504.544 152.16ZM569.678 135.88L569.958 152.32L571.598 153.16L571.998 154.04L564.838 154.2L565.038 152.92L566.638 152.48V135.88H557.438L557.478 152.48L559.078 152.92L559.238 154.2L552.158 154.04L552.038 153.16L554.198 152.32L554.398 135.88L553.838 135.76L551.518 135.6L552.198 133.4L553.398 133.72H570.678L571.878 133.4L572.278 135.64L570.318 135.76L569.678 135.88ZM585.662 143.04L594.782 141.6L593.702 136.48L591.062 135.48L585.982 137.24L585.622 143.2L585.662 143.04ZM593.582 133.84L596.702 136.6L597.822 143.32L585.622 145.24L587.742 151.48L592.342 151.32L597.782 149.68L598.102 152.76L587.102 154.36L582.302 147.28L582.822 137.24L588.062 133.44L593.582 133.84ZM624.647 144L622.447 137.56L617.967 136.96L613.807 138.44L614.047 148.8L618.207 150.4L623.527 148.04L624.647 144ZM628.287 144.72L624.127 151.96L617.687 153.2L613.647 151.36L613.847 160.36L616.527 161.28L616.367 162.84L608.287 162.8L608.127 161.6L610.607 160.6L610.367 135.6L609.007 135.12L610.367 132.48L613.847 134.28L613.567 135.88L617.767 134.32L624.607 134.4L628.287 144.72ZM663.325 151.92L663.645 153.8L663.045 154.12H653.925H652.925L638.485 153.8V152.2L639.445 151.92L639.085 135.52L637.525 134.6V133.96H643.525V134.92L642.245 135.2V151.92H647.925H649.485V135.2L648.245 134.92L647.925 133.96H654.205L653.925 134.6L652.285 135.52L652.005 151.92H653.925H659.245V135.2L657.965 134.92V133.96H663.965L663.645 134.6L662.405 135.52L662.125 151.92H663.325ZM675.855 152.16L675.655 135.2L673.255 134.44L673.415 133.4L681.295 133.48L681.335 134.48L678.895 135.12L678.335 149.36L688.215 135.56V135.12L685.775 134.6L685.975 133.64L693.615 133.72L693.655 134.72L691.335 135.32L691.055 152.4L693.975 153.52L693.895 154.48L686.535 154.6L686.695 153.28L688.495 152.72L688.295 138.48L678.575 151.96L678.655 152.6L680.455 153.36L680.375 154.2L673.095 154.28L673.335 152.96L675.855 152.16ZM728.796 153.04L728.636 154.16L720.116 154.12L720.076 152.92L723.516 152L723.956 137.52L723.516 137.48L717.396 152L715.156 152.04L709.236 137.96L708.276 138.12L709.476 151.92L712.076 152.72L712.196 154.2L703.956 154.04L703.836 153.04L706.236 152.08L705.956 135.44L703.276 134.48L703.196 133.52L709.796 133.8L710.876 135.68L716.036 147.84L716.396 147.72L721.356 135L722.316 133.64L728.636 133.68V134.96L726.836 135.44L726.116 152.16L728.796 153.04Z" fill="white"/>
</svg>
